<?xml version="1.0" encoding="utf-8"?>
<!-- Generator: Adobe Illustrator 23.0.0, SVG Export Plug-In . SVG Version: 6.00 Build 0)  -->
<svg version="1.1" xmlns="http://www.w3.org/2000/svg" xmlns:xlink="http://www.w3.org/1999/xlink" x="0px" y="0px"
	 viewBox="0 0 512 512" style="enable-background:new 0 0 512 512;" xml:space="preserve">
<style type="text/css">
	.st0{display:none;fill:#222222;}
	.st1{fill:#424242;}
	.st2{fill:#222222;}
	.st3{fill:#CB8252;}
	.st4{fill:#A56A43;}
	.st5{fill:#F4EAD9;}
	.st6{fill:#955BA5;}
	.st7{fill:#4482C3;}
	.st8{fill:#894B9D;}
	.st9{display:none;}
	.st10{display:inline;fill:#35495E;}
	.st11{display:inline;}
	.st12{fill:#FFFFFF;}
	.st13{display:inline;fill:#F9C795;}
</style>
<g id="Layer_2">
	<rect y="0" class="st0" width="512" height="512"/>
	<circle class="st1" cx="256" cy="256" r="256"/>
	<circle class="st2" cx="256" cy="256" r="242"/>
</g>
<g id="Layer_1">
	<g id="Page-1">
		<g transform="translate(0 -1)">
			<path id="Shape" class="st3" d="M239.5,51.4c-7.7,0-14.3-5.2-16.1-12.7s1.8-15.1,8.7-18.6l33-16.5c8.1-4.1,18.1-0.8,22.2,7.3
				c4.1,8.1,0.8,18.1-7.3,22.2l-33,16.5C244.6,50.9,242.1,51.5,239.5,51.4z"/>
			<path class="st4" d="M239.5,88.3c-7.7,0-14.3-5.2-16.1-12.7s1.8-15.1,8.7-18.6l33-16.5c5.3-2.6,11.5-2.3,16.5,0.9
				c4.9,3.2,7.8,8.9,7.4,14.7c-0.3,5.9-3.8,11.1-9.1,13.8l-33,16.5C244.6,87.7,242.1,88.3,239.5,88.3L239.5,88.3z"/>
			<path class="st3" d="M273.4,110.1l6.4-3.2c5.4-2.5,9-7.8,9.4-13.7c0.4-5.9-2.4-11.6-7.4-14.9c-5-3.3-11.3-3.6-16.6-0.8l-33,16.5
				c-6.9,3.4-10.5,11.2-8.7,18.6L273.4,110.1z"/>
			<path class="st5" d="M208,341.7c-46.3,44.8-66.5,37.4-75.5,23.5c-6.7-11.3-7-25.4-0.7-36.9c5.2-10.7,12.1-20.6,20.3-29.3
				c10.4-11.3,23.5-19.5,38.2-24l11.9,44.7L208,341.7z"/>
			<path class="st5" d="M379.5,365.2c-9.2,14.3-30.4,21.8-79.9-27.7l8.6-17.6l20.6-42.4c11.8,4.9,22.4,12.2,31.1,21.5
				c8.2,8.7,15,18.6,20.3,29.3C386.4,339.8,386.2,353.9,379.5,365.2L379.5,365.2z"/>
			<path class="st6" d="M190.3,275l11.9,44.7c-18.3-2-35.7-9.2-50-20.7C162.5,287.7,175.7,279.4,190.3,275L190.3,275z"/>
			<path class="st6" d="M359.8,298.9c-10.5,9.6-26.7,16.9-51.7,20.9l20.6-42.4C340.5,282.3,351.1,289.6,359.8,298.9z"/>
			<path class="st7" d="M179.6,373.6c-4.7,26.6-6.6,53.6-5.4,80.6c0.6,13.2,10.6,24,23.7,25.7c0.8,0.1,1.6,0.1,2.4,0.1
				c10.1-0.1,19.3-6,23.7-15.1c6.2-12.4,12.4-33.4,13.3-68.1L179.6,373.6z"/>
			<path class="st7" d="M332.4,373.6c4.7,26.6,6.6,53.6,5.4,80.6c-0.6,13.2-10.6,24-23.7,25.7c-0.8,0.1-1.6,0.1-2.4,0.1
				c-10.1-0.1-19.3-6-23.7-15.1c-6.2-12.4-12.4-33.4-13.3-68.1L332.4,373.6z"/>
			<path class="st6" d="M328,299c6,17.3,9.3,35.4,10.1,53.7c0.3,5-0.5,9.9-2.4,14.5c-0.8,2.3-1.9,4.4-3.3,6.3
				c-1.8,2.7-4.1,5.1-6.8,7.1c-15.1,10-32.7,15.6-50.8,16.2c-5.8,0.5-11.9,0.7-18.8,0.7s-13-0.2-18.8-0.7
				c-18.1-0.6-35.7-6.2-50.8-16.2c-2.6-2-4.9-4.4-6.8-7.1c-1.4-2-2.5-4.1-3.3-6.3c-1.9-4.6-2.7-9.6-2.4-14.5
				c0.7-18.3,4.1-36.4,10.1-53.7H328z"/>
			<path class="st8" d="M264.2,364.6h-16.5c-4.6,0-8.2-3.7-8.2-8.2s3.7-8.2,8.2-8.2h16.5c4.6,0,8.2,3.7,8.2,8.2
				S268.8,364.6,264.2,364.6z"/>
			<path class="st5" d="M256,109.1c-31.5-0.4-62.3,9.8-87.4,29c-22.2,16.5-35.6,42.3-36.3,69.9c0,27.3,0,52,15.5,69.9
				s46.4,29,108.2,29s92.7-11.1,108.2-29c15.5-17.9,15.5-42.6,15.5-69.9c-0.7-27.6-14.1-53.4-36.3-69.9
				C318.3,118.9,287.5,108.7,256,109.1z"/>
			<g id="Eyes" class="st9">
				<circle id="Oval" class="st10" cx="202.4" cy="236.9" r="28.8"/>
				<circle class="st10" cx="309.6" cy="236.9" r="28.8"/>
				<g class="st11">
					<circle class="st12" cx="190.1" cy="224.5" r="8.2"/>
					<circle class="st12" cx="297.2" cy="224.5" r="8.2"/>
				</g>
				<path class="st13" d="M223,274h-41.2c-4.6,0-8.2-3.7-8.2-8.2s3.7-8.2,8.2-8.2H223c4.6,0,8.2,3.7,8.2,8.2S227.6,274,223,274z"/>
				<path class="st13" d="M330.2,274H289c-4.6,0-8.2-3.7-8.2-8.2s3.7-8.2,8.2-8.2h41.2c4.6,0,8.2,3.7,8.2,8.2S334.7,274,330.2,274z"
					/>
			</g>
		</g>
	</g>
	<g>
		<path class="st2" d="M177.8,219.2l5.4,5.4c2,2,5.2,2,7.2,0.1l11.7-11.5l11.5,11.7c2,2,5.2,2,7.2,0.1l5.4-5.4c2-2,2-5.2,0.1-7.2
			l-11.5-11.7l11.7-11.5c2-2,2-5.2,0-7.2l-5.4-5.4c-2-2-5.2-2-7.2-0.1L202.3,188l-11.5-11.7c-2-2-5.2-2-7.2-0.1l-5.4,5.4
			c-2,2-2,5.2-0.1,7.2l11.5,11.7L177.9,212C175.9,214,175.9,217.2,177.8,219.2z"/>
	</g>
	<g>
		<path class="st2" d="M292,219.2l5.4,5.4c2,2,5.2,2,7.2,0.1l11.7-11.5l11.5,11.7c2,2,5.2,2,7.2,0.1l5.4-5.4c2-2,2-5.2,0.1-7.2
			l-11.5-11.7l11.7-11.5c2-2,2-5.2,0-7.2l-5.4-5.4c-2-2-5.2-2-7.2-0.1L316.4,188l-11.5-11.7c-2-2-5.2-2-7.2-0.1l-5.4,5.4
			c-2,2-2,5.2-0.1,7.2l11.5,11.7L292,212C290,214,290,217.2,292,219.2z"/>
	</g>
</g>
</svg>
