<?xml version="1.0" encoding="utf-8"?>
<!-- Generator: Adobe Illustrator 23.0.0, SVG Export Plug-In . SVG Version: 6.00 Build 0)  -->
<svg version="1.1" xmlns="http://www.w3.org/2000/svg" xmlns:xlink="http://www.w3.org/1999/xlink" x="0px" y="0px"
	 viewBox="0 0 1000 1000" style="enable-background:new 0 0 1000 1000;" xml:space="preserve">
<style type="text/css">
	.st0{display:none;}
	.st1{display:inline;fill:#686868;stroke:#000000;stroke-width:1.0909;stroke-miterlimit:10;}
	.st2{fill:#222222;}
	.st3{display:inline;fill:#424242;}
	.st4{display:inline;fill:#222222;}
	.st5{fill:#CB8252;}
	.st6{fill:#A56A43;}
	.st7{fill:#F4EAD9;}
	.st8{fill:#955BA5;}
	.st9{fill:#4482C3;}
	.st10{fill:#894B9D;}
	.st11{display:inline;fill:#35495E;}
	.st12{display:inline;}
	.st13{fill:#FFFFFF;}
	.st14{display:inline;fill:#F9C795;}
</style>
<g id="Layer_2" class="st0">
	<rect class="st1" width="1000" height="1000"/>
</g>
<g id="Layer_1">
	<g class="st0">
		<rect x="244" y="244" class="st2" width="512" height="512"/>
		<circle class="st3" cx="500" cy="500" r="256"/>
		<circle class="st4" cx="500" cy="500" r="242"/>
	</g>
	<g>
		<g id="Page-1">
			<g transform="translate(0 -1)">
				<path id="Shape" class="st5" d="M483.5,295.4c-7.7,0-14.3-5.2-16.1-12.7s1.8-15.1,8.7-18.6l33-16.5c8.1-4.1,18.1-0.8,22.2,7.3
					c4.1,8.1,0.8,18.1-7.3,22.2l-33,16.5C488.6,294.9,486.1,295.5,483.5,295.4z"/>
				<path id="Shape_1_" class="st5" d="M483.5,221.3c-7.7,0-14.3-5.2-16.1-12.7s1.8-15.1,8.7-18.6l33-16.5
					c8.1-4.1,18.1-0.8,22.2,7.3c4.1,8.1,0.8,18.1-7.3,22.2l-33,16.5C488.6,220.8,486.1,221.4,483.5,221.3z"/>
				<path id="Shape_2_" class="st5" d="M483.5,147.2c-7.7,0-14.3-5.2-16.1-12.7s1.8-15.1,8.7-18.6l33-16.5
					c8.1-4.1,18.1-0.8,22.2,7.3s0.8,18.1-7.3,22.2l-33,16.5C488.6,146.7,486.1,147.3,483.5,147.2z"/>
				<path id="Shape_3_" class="st5" d="M483.5,73.8c-7.7,0-14.3-5.2-16.1-12.7s1.8-15.1,8.7-18.6l33-16.5c8.1-4.1,18.1-0.8,22.2,7.3
					s0.8,18.1-7.3,22.2L491,72C488.6,73.3,486.1,73.9,483.5,73.8z"/>
				<path class="st6" d="M483.5,332.3c-7.7,0-14.3-5.2-16.1-12.7s1.8-15.1,8.7-18.6l33-16.5c5.3-2.6,11.5-2.3,16.5,0.9
					c4.9,3.2,7.8,8.9,7.4,14.7c-0.3,5.9-3.8,11.1-9.1,13.8l-33,16.5C488.6,331.7,486.1,332.3,483.5,332.3L483.5,332.3z"/>
				<path class="st6" d="M483.5,258.2c-7.7,0-14.3-5.2-16.1-12.7s1.8-15.1,8.7-18.6l33-16.5c5.3-2.6,11.5-2.3,16.5,0.9
					c4.9,3.2,7.8,8.9,7.4,14.7c-0.3,5.9-3.8,11.1-9.1,13.8l-33,16.5C488.6,257.6,486.1,258.2,483.5,258.2L483.5,258.2z"/>
				<path class="st6" d="M483.5,184.4c-7.7,0-14.3-5.2-16.1-12.7s1.8-15.1,8.7-18.6l33-16.5c5.3-2.6,11.5-2.3,16.5,0.9
					c4.9,3.2,7.8,8.9,7.4,14.7c-0.3,5.9-3.8,11.1-9.1,13.8l-33,16.5C488.6,183.8,486.1,184.4,483.5,184.4L483.5,184.4z"/>
				<path class="st6" d="M483.5,111c-7.7,0-14.3-5.2-16.1-12.7s1.8-15.1,8.7-18.6l33-16.5c5.3-2.6,11.5-2.3,16.5,0.9
					c4.9,3.2,7.8,8.9,7.4,14.7c-0.3,5.9-3.8,11.1-9.1,13.8l-33,16.5C488.6,110.4,486.1,111,483.5,111L483.5,111z"/>
				<path class="st6" d="M483.5,36.9c-7.7,0-14.3-5.2-16.1-12.7s1.8-15.1,8.7-18.6l33-16.5c5.3-2.6,11.5-2.3,16.5,0.9
					c4.9,3.2,7.8,8.9,7.4,14.7c-0.3,5.9-3.8,11.1-9.1,13.8l-33,16.5C488.6,36.3,486.1,36.9,483.5,36.9L483.5,36.9z"/>
				<path class="st5" d="M517.4,354.1l6.4-3.2c5.4-2.5,9-7.8,9.4-13.7c0.4-5.9-2.4-11.6-7.4-14.9c-5-3.3-11.3-3.6-16.6-0.8l-33,16.5
					c-6.9,3.4-10.5,11.2-8.7,18.6L517.4,354.1z"/>
				<path class="st7" d="M452,585.7c-46.3,44.8-66.5,37.4-75.5,23.5c-6.7-11.3-7-25.4-0.7-36.9c5.2-10.7,12.1-20.6,20.3-29.3
					c10.4-11.3,23.5-19.5,38.2-24l11.9,44.7L452,585.7z"/>
				<path class="st7" d="M623.5,609.2c-9.2,14.3-30.4,21.8-79.9-27.7l8.6-17.6l20.6-42.4c11.8,4.9,22.4,12.2,31.1,21.5
					c8.2,8.7,15,18.6,20.3,29.3C630.4,583.8,630.2,597.9,623.5,609.2L623.5,609.2z"/>
				<path class="st8" d="M434.3,519l11.9,44.7c-18.3-2-35.7-9.2-50-20.7C406.5,531.7,419.7,523.4,434.3,519L434.3,519z"/>
				<path class="st8" d="M603.8,542.9c-10.5,9.6-26.7,16.9-51.7,20.9l20.6-42.4C584.5,526.3,595.1,533.6,603.8,542.9z"/>
				<path class="st9" d="M423.6,617.6c-4.7,26.6-6.6,53.6-5.4,80.6c0.6,13.2,10.6,24,23.7,25.7c0.8,0.1,1.6,0.1,2.4,0.1
					c10.1-0.1,19.3-6,23.7-15.1c6.2-12.4,12.4-33.4,13.3-68.1L423.6,617.6z"/>
				<path class="st9" d="M576.4,617.6c4.7,26.6,6.6,53.6,5.4,80.6c-0.6,13.2-10.6,24-23.7,25.7c-0.8,0.1-1.6,0.1-2.4,0.1
					c-10.1-0.1-19.3-6-23.7-15.1c-6.2-12.4-12.4-33.4-13.3-68.1L576.4,617.6z"/>
				<path class="st8" d="M572,543c6,17.3,9.3,35.4,10.1,53.7c0.3,5-0.5,9.9-2.4,14.5c-0.8,2.3-1.9,4.4-3.3,6.3
					c-1.8,2.7-4.1,5.1-6.8,7.1c-15.1,10-32.7,15.6-50.8,16.2c-5.8,0.5-11.9,0.7-18.8,0.7s-13-0.2-18.8-0.7
					c-18.1-0.6-35.7-6.2-50.8-16.2c-2.6-2-4.9-4.4-6.8-7.1c-1.4-2-2.5-4.1-3.3-6.3c-1.9-4.6-2.7-9.6-2.4-14.5
					c0.7-18.3,4.1-36.4,10.1-53.7H572z"/>
				<path class="st10" d="M508.2,608.6h-16.5c-4.6,0-8.2-3.7-8.2-8.2s3.7-8.2,8.2-8.2h16.5c4.6,0,8.2,3.7,8.2,8.2
					S512.8,608.6,508.2,608.6z"/>
				<path class="st7" d="M500,353.1c-31.5-0.4-62.3,9.8-87.4,29c-22.2,16.5-35.6,42.3-36.3,69.9c0,27.3,0,52,15.5,69.9
					c15.5,17.9,46.4,29,108.2,29s92.7-11.1,108.2-29c15.5-17.9,15.5-42.6,15.5-69.9c-0.7-27.6-14.1-53.4-36.3-69.9
					C562.3,362.9,531.5,352.7,500,353.1z"/>
				<g id="Eyes" class="st0">
					<circle id="Oval" class="st11" cx="446.4" cy="480.9" r="28.8"/>
					<circle class="st11" cx="553.6" cy="480.9" r="28.8"/>
					<g class="st12">
						<circle class="st13" cx="434.1" cy="468.5" r="8.2"/>
						<circle class="st13" cx="541.2" cy="468.5" r="8.2"/>
					</g>
					<path class="st14" d="M467,518h-41.2c-4.6,0-8.2-3.7-8.2-8.2s3.7-8.2,8.2-8.2H467c4.6,0,8.2,3.7,8.2,8.2S471.6,518,467,518z"/>
					<path class="st14" d="M574.2,518H533c-4.6,0-8.2-3.7-8.2-8.2s3.7-8.2,8.2-8.2h41.2c4.6,0,8.2,3.7,8.2,8.2S578.7,518,574.2,518z
						"/>
				</g>
			</g>
		</g>
		<g>
			<path class="st2" d="M421.8,463.2l5.4,5.4c2,2,5.2,2,7.2,0.1l11.7-11.5l11.5,11.7c2,2,5.2,2,7.2,0.1l5.4-5.4c2-2,2-5.2,0.1-7.2
				l-11.5-11.7l11.7-11.5c2-2,2-5.2,0-7.2l-5.4-5.4c-2-2-5.2-2-7.2-0.1L446.3,432l-11.5-11.7c-2-2-5.2-2-7.2-0.1l-5.4,5.4
				c-2,2-2,5.2-0.1,7.2l11.5,11.7L421.9,456C419.9,458,419.9,461.2,421.8,463.2z"/>
		</g>
		<g>
			<path class="st2" d="M536,463.2l5.4,5.4c2,2,5.2,2,7.2,0.1l11.7-11.5l11.5,11.7c2,2,5.2,2,7.2,0.1l5.4-5.4c2-2,2-5.2,0.1-7.2
				L573,444.7l11.7-11.5c2-2,2-5.2,0-7.2l-5.4-5.4c-2-2-5.2-2-7.2-0.1L560.4,432l-11.5-11.7c-2-2-5.2-2-7.2-0.1l-5.4,5.4
				c-2,2-2,5.2-0.1,7.2l11.5,11.7L536,456C534,458,534,461.2,536,463.2z"/>
		</g>
	</g>
</g>
</svg>
